<?xml version="1.0" standalone="no"?>
<!DOCTYPE svg PUBLIC "-//W3C//DTD SVG 20010904//EN"
 "http://www.w3.org/TR/2001/REC-SVG-20010904/DTD/svg10.dtd">
<svg version="1.0" xmlns="http://www.w3.org/2000/svg"
 width="150.000000pt" height="150.000000pt" viewBox="0 0 150.000000 150.000000"
 preserveAspectRatio="xMidYMid meet">
<metadata>
Created by potrace 1.11, written by Peter Selinger 2001-2013
</metadata>
<g transform="translate(0.000000,150.000000) scale(0.100000,-0.100000)"
fill="#000000" stroke="none">
<path d="M680 1232 c-8 -3 -26 -9 -40 -14 -14 -5 -26 -9 -27 -9 -2 0 -21 -6
-44 -14 -23 -8 -45 -12 -50 -9 -5 3 -9 0 -9 -6 0 -6 -4 -8 -10 -5 -5 3 -10 2
-10 -4 0 -5 -8 -8 -17 -7 -10 2 -20 0 -23 -5 -3 -4 -21 -11 -40 -14 -19 -3
-37 -10 -40 -14 -3 -4 -13 -9 -22 -9 -42 -4 -48 -6 -48 -14 0 -5 -4 -6 -10 -3
-5 3 -20 -1 -32 -8 -13 -8 -32 -13 -42 -12 -10 2 -25 -3 -33 -11 -8 -8 -19
-12 -24 -9 -5 4 -9 3 -9 -2 0 -4 -10 -9 -23 -9 -32 -3 -51 -8 -58 -17 -3 -4
-19 -9 -36 -10 -22 -1 -30 -7 -29 -20 1 -9 5 -17 10 -16 5 0 12 -4 15 -10 4
-6 17 -12 29 -14 12 -2 25 -6 28 -10 4 -4 15 -7 25 -7 9 0 29 -7 45 -15 19
-10 30 -11 35 -4 8 14 17 -1 14 -21 -2 -8 -9 -28 -16 -45 -14 -34 -18 -50 -21
-82 -1 -13 -5 -23 -8 -23 -3 0 -5 -13 -4 -30 1 -16 -1 -28 -4 -26 -4 2 -13 -2
-20 -10 -7 -8 -10 -14 -8 -14 3 0 1 -11 -4 -25 -6 -17 -6 -25 1 -25 6 0 8 -4
4 -9 -3 -6 2 -14 11 -19 12 -7 15 -20 11 -63 -3 -30 -6 -54 -7 -54 -1 0 -6
-41 -13 -110 -2 -11 -6 -25 -10 -32 -4 -6 -3 -14 2 -18 6 -3 8 -12 4 -20 -4
-12 8 -15 71 -15 77 0 84 4 77 44 -1 4 -2 28 -3 52 0 24 -4 44 -9 44 -4 0 -7
16 -5 36 1 19 -1 37 -4 39 -4 3 -6 16 -5 30 2 14 -1 27 -6 30 -5 4 0 16 11 27
11 12 20 27 21 32 0 6 2 19 4 29 2 9 -1 17 -6 17 -6 0 -8 4 -4 9 3 5 1 12 -5
16 -5 3 -15 15 -21 27 -9 16 -8 19 3 12 11 -6 11 -5 -1 9 -9 11 -10 17 -2 17
6 0 11 16 11 35 0 19 4 35 9 35 5 0 12 11 15 25 4 14 11 25 17 25 6 0 7 6 3
13 -6 8 -3 8 9 -1 9 -8 21 -11 27 -7 5 3 10 1 10 -5 0 -6 3 -9 8 -7 4 3 18 0
32 -6 14 -5 36 -12 50 -14 13 -2 30 -9 37 -15 7 -6 13 -7 13 -3 0 4 12 0 26
-10 15 -9 24 -12 20 -7 -3 6 7 4 24 -4 16 -9 34 -13 40 -9 5 3 10 1 10 -5 0
-7 7 -10 15 -6 8 3 15 1 15 -5 0 -6 7 -9 15 -5 8 3 15 1 15 -5 0 -6 7 -9 15
-5 8 3 15 0 15 -7 0 -8 4 -6 10 3 8 12 10 12 10 1 0 -11 3 -11 15 -1 8 7 15 9
15 5 0 -4 6 -3 13 3 6 6 15 11 20 11 7 1 11 2 25 6 4 1 21 5 37 10 17 4 35 10
40 14 11 6 28 10 58 13 9 1 17 6 17 10 0 4 8 8 19 8 10 0 35 7 55 15 20 8 36
12 36 9 0 -4 6 -1 13 5 8 6 17 8 20 4 4 -3 7 -1 7 4 0 6 11 10 25 8 14 -1 29
3 33 9 6 10 22 15 60 18 6 1 12 5 12 9 0 4 9 6 20 4 11 -2 20 1 20 7 0 6 3 8
7 5 3 -4 12 -2 20 4 7 6 13 8 13 5 0 -4 10 -1 22 5 13 7 34 13 48 14 44 2 28
55 -16 55 -13 0 -24 4 -24 8 0 4 -12 9 -26 10 -14 1 -31 5 -37 9 -7 4 -19 9
-27 10 -9 1 -49 13 -90 27 -40 14 -77 23 -82 20 -4 -3 -8 0 -8 6 0 7 -7 10
-15 6 -8 -3 -15 -1 -15 5 0 6 -4 7 -10 4 -5 -3 -10 -2 -10 3 0 6 -6 9 -12 9
-7 -1 -47 9 -88 23 -79 25 -90 28 -116 33 -8 2 -20 10 -25 18 -7 12 -9 12 -9
-1 0 -13 -1 -13 -10 0 -5 8 -10 11 -10 6 0 -5 -6 -4 -12 1 -14 11 -34 13 -58
5z"/>
<path d="M322 789 c-7 -10 -9 -19 -4 -19 4 0 8 -11 8 -25 0 -14 -3 -25 -6 -25
-3 0 -6 -9 -7 -20 -1 -11 2 -18 6 -16 10 6 8 -25 -3 -42 -4 -6 -5 -16 -2 -21
4 -5 1 -11 -5 -13 -14 -5 59 -88 78 -88 8 0 11 -5 7 -12 -4 -7 -3 -8 5 -4 6 4
17 3 24 -2 7 -5 28 -13 47 -18 46 -10 49 -11 58 -14 4 -1 11 -2 16 -1 4 1 14
-3 21 -9 9 -8 15 -8 20 0 3 6 12 7 18 3 15 -10 178 -13 192 -4 14 9 37 7 54
-3 10 -6 12 -5 7 2 -5 8 1 12 16 13 13 0 32 3 43 6 11 3 30 6 42 7 11 0 19 4
17 8 -2 4 6 10 18 14 25 8 97 54 85 54 -5 0 -2 6 6 14 9 10 13 33 11 73 -1 32
-3 73 -3 91 -1 24 -5 31 -13 26 -9 -5 -8 -2 1 10 11 13 11 20 3 28 -9 9 -12 9
-12 0 0 -7 -7 -12 -17 -12 -21 0 -126 -32 -133 -41 -3 -3 -13 -5 -22 -3 -10 1
-18 -2 -18 -7 0 -4 -7 -5 -17 -2 -10 4 -14 2 -9 -5 4 -6 -1 -11 -11 -11 -38
-1 -53 -5 -53 -12 0 -4 -11 -6 -25 -4 -14 1 -25 -2 -25 -8 0 -5 -9 -7 -20 -4
-11 3 -18 1 -14 -4 3 -5 1 -9 -5 -9 -5 0 -13 5 -16 10 -4 6 -11 8 -16 5 -5 -4
-9 -1 -9 5 0 6 -4 8 -10 5 -5 -3 -19 -1 -31 6 -12 6 -33 12 -46 14 -14 1 -28
7 -32 12 -3 5 -16 8 -28 7 -13 -1 -23 3 -23 7 0 5 -3 8 -7 8 -5 -1 -10 0 -13
1 -3 1 -13 3 -23 5 -10 2 -26 7 -35 11 -9 4 -26 9 -36 11 -11 2 -24 8 -31 13
-7 6 -15 2 -23 -11z"/>
</g>
</svg>
